# xmcd
#
# Track frame offsets:
#	150
#	16293
#	35167
#	54296
#	76671
#	99595
#	113511
#	133870
#	152400
#	170148
#	189487
#	193137
#	248505
#
# Disc length: 3597 seconds
#
# Revision: 0
# Processed by: cddbd v1.5.2PL0 Copyright (c) Steve Scherf et al.
# Submitted via: EasyCDDAExtractor 16.0.6.1
#
DISCID=9f0e0b0d
DTITLE=Darius Rucker - Back to Then
DYEAR=2002
DGENRE=Country
TTITLE0=Wild One
TTITLE1=Exodus
TTITLE2=Sometimes I Wonder (feat. Jill Scott)
TTITLE3=Back to Then
TTITLE4=This Is My World
TTITLE5=I'm Glad You're Mine
TTITLE6=Butterfly
TTITLE7=Hold On
TTITLE8=Ten Years
TTITLE9=One More Night
TTITLE10=Amazing Grace (interlude)
TTITLE11=Somewhere
TTITLE12=Sleeping in My Bed (feat. Snoop Dogg)
EXTD=
EXTT0=
EXTT1=
EXTT2=
EXTT3=
EXTT4=
EXTT5=
EXTT6=
EXTT7=
EXTT8=
EXTT9=
EXTT10=
EXTT11=
EXTT12=
PLAYORDER=
